<svg width="24" height="60" viewBox="0 0 24 60" fill="none" xmlns="http://www.w3.org/2000/svg">
<path d="M13.5 2.27084C13.5 1.44242 12.8284 0.770844 12 0.770844C11.1716 0.770843 10.5 1.44242 10.5 2.27084L13.5 2.27084ZM10.9393 59.3315C11.5251 59.9173 12.4749 59.9173 13.0607 59.3315L22.6066 49.7856C23.1924 49.1998 23.1924 48.25 22.6066 47.6642C22.0208 47.0785 21.0711 47.0785 20.4853 47.6642L12 56.1495L3.51472 47.6642C2.92893 47.0785 1.97918 47.0785 1.3934 47.6642C0.80761 48.25 0.80761 49.1998 1.3934 49.7856L10.9393 59.3315ZM10.5 2.27084L10.5 58.2708L13.5 58.2708L13.5 2.27084L10.5 2.27084Z" fill="#737373"/>
</svg>
