<svg width="250" height="250" viewBox="0 0 250 250" fill="none" xmlns="http://www.w3.org/2000/svg">
<rect width="250" height="250" rx="64" fill="#FF6D29"/>
<path d="M93.8267 103.134C93.4763 99.2793 91.9171 96.2836 89.1492 94.1463C86.4162 91.974 82.5095 90.8878 77.429 90.8878C74.0653 90.8878 71.2623 91.3258 69.0199 92.2017C66.7775 93.0776 65.0956 94.2865 63.9744 95.8281C62.8532 97.3348 62.2751 99.0691 62.2401 101.031C62.17 102.643 62.4853 104.062 63.1861 105.288C63.9219 106.515 64.973 107.601 66.3395 108.547C67.741 109.458 69.4228 110.264 71.3849 110.964C73.3471 111.665 75.5545 112.278 78.0071 112.804L87.2571 114.906C92.5829 116.062 97.2779 117.604 101.342 119.531C105.442 121.458 108.875 123.753 111.643 126.416C114.447 129.079 116.566 132.145 118.003 135.614C119.439 139.082 120.175 142.972 120.21 147.281C120.175 154.079 118.458 159.912 115.06 164.783C111.661 169.653 106.773 173.384 100.396 175.977C94.0545 178.57 86.3987 179.866 77.429 179.866C68.4242 179.866 60.5758 178.518 53.8835 175.82C47.1913 173.122 41.9882 169.022 38.2741 163.521C34.5601 158.02 32.6506 151.065 32.5455 142.656H57.4574C57.6676 146.125 58.5961 149.016 60.2429 151.328C61.8897 153.641 64.1496 155.393 67.0227 156.584C69.9309 157.775 73.2945 158.371 77.1136 158.371C80.6174 158.371 83.5956 157.898 86.0483 156.952C88.536 156.006 90.4456 154.692 91.777 153.01C93.1084 151.328 93.7917 149.401 93.8267 147.229C93.7917 145.196 93.161 143.462 91.9347 142.026C90.7083 140.554 88.8163 139.293 86.2585 138.241C83.7358 137.155 80.5123 136.157 76.5881 135.246L65.3409 132.618C56.0208 130.481 48.6804 127.029 43.3196 122.264C37.9588 117.464 35.2959 110.982 35.331 102.818C35.2959 96.161 37.0829 90.3272 40.6918 85.3168C44.3007 80.3063 49.2936 76.3996 55.6705 73.5966C62.0473 70.7936 69.3177 69.392 77.4815 69.392C85.8206 69.392 93.0559 70.8111 99.1875 73.6491C105.354 76.4522 110.137 80.3939 113.536 85.4744C116.934 90.5549 118.669 96.4413 118.739 103.134H93.8267ZM133.349 178.5V70.8636H177.812C185.871 70.8636 192.826 72.4403 198.678 75.5938C204.564 78.7121 209.101 83.0743 212.29 88.6804C215.478 94.2514 217.072 100.733 217.072 108.126C217.072 115.554 215.443 122.054 212.185 127.625C208.961 133.161 204.354 137.453 198.362 140.501C192.371 143.55 185.258 145.074 177.024 145.074H149.589V124.577L172.189 124.577C176.113 124.577 179.389 123.893 182.017 122.527C184.68 121.161 186.695 119.251 188.061 116.798C189.428 114.311 190.111 111.42 190.111 108.126C190.111 104.798 189.428 101.925 188.061 99.5071C186.695 97.0544 184.68 95.1624 182.017 93.831C179.354 92.4995 176.078 91.8338 172.189 91.8338H159.365V178.5H133.349Z" fill="white"/>
</svg>
