<?xml version="1.0" encoding="UTF-8"?>
<svg id="Layer_1" data-name="Layer 1" xmlns="http://www.w3.org/2000/svg" version="1.1" viewBox="0 0 250 250">
  <defs>
    <style>
      .cls-1 {
        fill: #ff6d29;
      }

      .cls-1, .cls-2 {
        stroke-width: 0px;
      }

      .cls-2 {
        fill: #fff;
      }
    </style>
  </defs>
  <rect class="cls-1" width="250" height="250" rx="62.5" ry="62.5"/>
  <path class="cls-2" d="M93.8,103.1c-.4-3.9-1.9-6.9-4.7-9-2.7-2.2-6.6-3.3-11.7-3.3s-6.2.4-8.4,1.3-3.9,2.1-5,3.6c-1.1,1.5-1.7,3.2-1.7,5.2,0,1.6.2,3,.9,4.3.7,1.2,1.8,2.3,3.2,3.3,1.4.9,3.1,1.7,5,2.4,2,.7,4.2,1.3,6.6,1.8l9.2,2.1c5.3,1.2,10,2.7,14.1,4.6,4.1,1.9,7.5,4.2,10.3,6.9,2.8,2.7,4.9,5.7,6.4,9.2,1.4,3.5,2.2,7.4,2.2,11.7,0,6.8-1.8,12.6-5.2,17.5-3.4,4.9-8.3,8.6-14.7,11.2-6.3,2.6-14,3.9-23,3.9s-16.9-1.3-23.5-4c-6.7-2.7-11.9-6.8-15.6-12.3-3.7-5.5-5.6-12.5-5.7-20.9h24.9c.2,3.5,1.1,6.4,2.8,8.7,1.6,2.3,3.9,4.1,6.8,5.3,2.9,1.2,6.3,1.8,10.1,1.8s6.5-.5,8.9-1.4c2.5-.9,4.4-2.3,5.7-3.9,1.3-1.7,2-3.6,2-5.8,0-2-.7-3.8-1.9-5.2-1.2-1.5-3.1-2.7-5.7-3.8-2.5-1.1-5.7-2.1-9.7-3l-11.2-2.6c-9.3-2.1-16.7-5.6-22-10.4-5.4-4.8-8-11.3-8-19.4,0-6.7,1.8-12.5,5.4-17.5,3.6-5,8.6-8.9,15-11.7,6.4-2.8,13.6-4.2,21.8-4.2s15.6,1.4,21.7,4.3c6.2,2.8,10.9,6.7,14.3,11.8,3.4,5.1,5.1,11,5.2,17.7h-24.9ZM133.3,178.5v-107.6h44.5c8.1,0,15,1.6,20.9,4.7,5.9,3.1,10.4,7.5,13.6,13.1,3.2,5.6,4.8,12.1,4.8,19.4s-1.6,13.9-4.9,19.5c-3.2,5.5-7.8,9.8-13.8,12.9-6,3-13.1,4.6-21.3,4.6h-27.4v-20.5h22.6c3.9,0,7.2-.7,9.8-2.1,2.7-1.4,4.7-3.3,6-5.7,1.4-2.5,2-5.4,2-8.7s-.7-6.2-2-8.6c-1.4-2.5-3.4-4.3-6-5.7-2.7-1.3-5.9-2-9.8-2h-12.8v86.7h-26Z"/>
</svg>