<svg width="1213" height="283" viewBox="0 0 1213 283" fill="none" xmlns="http://www.w3.org/2000/svg">
<rect width="1213" height="283" rx="64" fill="#FF6D29"/>
<path d="M142.625 128.922L119.027 129.553C118.782 127.871 118.116 126.382 117.03 125.085C115.944 123.754 114.525 122.72 112.773 121.984C111.056 121.214 109.059 120.828 106.781 120.828C103.803 120.828 101.263 121.424 99.1605 122.615C97.0933 123.806 96.0772 125.418 96.1122 127.45C96.0772 129.027 96.7079 130.393 98.0043 131.55C99.3357 132.706 101.701 133.634 105.099 134.335L120.656 137.278C128.715 138.82 134.706 141.378 138.631 144.952C142.59 148.526 144.587 153.256 144.622 159.142C144.587 164.678 142.94 169.496 139.682 173.595C136.458 177.695 132.044 180.883 126.438 183.161C120.831 185.403 114.42 186.524 107.202 186.524C95.6742 186.524 86.5819 184.159 79.9247 179.429C73.3026 174.664 69.5185 168.287 68.5724 160.298L93.9574 159.668C94.518 162.611 95.9721 164.853 98.3196 166.395C100.667 167.937 103.663 168.707 107.307 168.707C110.6 168.707 113.281 168.094 115.348 166.868C117.415 165.642 118.466 164.012 118.501 161.98C118.466 160.158 117.661 158.704 116.084 157.618C114.507 156.497 112.037 155.621 108.673 154.99L94.5881 152.31C86.4943 150.838 80.4678 148.123 76.5085 144.163C72.5492 140.169 70.5871 135.089 70.6222 128.922C70.5871 123.526 72.0237 118.919 74.9318 115.099C77.84 111.245 81.9744 108.302 87.3352 106.27C92.696 104.238 99.0204 103.222 106.308 103.222C117.24 103.222 125.859 105.517 132.166 110.107C138.473 114.661 141.959 120.933 142.625 128.922ZM182.975 138.96V185H157.275V77.3636H182.135V119.094H183.028C184.85 114.118 187.828 110.229 191.963 107.426C196.132 104.623 201.23 103.222 207.257 103.222C212.933 103.222 217.873 104.483 222.078 107.006C226.282 109.493 229.541 113.015 231.853 117.57C234.201 122.125 235.357 127.45 235.322 133.547V185H209.622V138.592C209.657 134.107 208.536 130.604 206.258 128.081C203.981 125.558 200.775 124.297 196.64 124.297C193.942 124.297 191.56 124.893 189.493 126.084C187.46 127.24 185.866 128.904 184.71 131.077C183.589 133.249 183.011 135.877 182.975 138.96ZM274.122 186.366C268.972 186.366 264.399 185.508 260.405 183.791C256.446 182.039 253.31 179.411 250.997 175.908C248.72 172.369 247.581 167.937 247.581 162.611C247.581 158.126 248.369 154.342 249.946 151.259C251.523 148.175 253.695 145.67 256.463 143.743C259.231 141.816 262.42 140.362 266.028 139.381C269.637 138.365 273.491 137.681 277.591 137.331C282.181 136.911 285.877 136.473 288.68 136.017C291.483 135.527 293.516 134.843 294.777 133.967C296.073 133.056 296.722 131.777 296.722 130.131V129.868C296.722 127.17 295.793 125.085 293.936 123.614C292.079 122.142 289.574 121.406 286.42 121.406C283.022 121.406 280.289 122.142 278.222 123.614C276.154 125.085 274.84 127.117 274.28 129.71L250.577 128.869C251.277 123.964 253.082 119.584 255.99 115.73C258.933 111.841 262.963 108.793 268.078 106.585C273.229 104.343 279.413 103.222 286.631 103.222C291.781 103.222 296.529 103.835 300.874 105.061C305.218 106.252 309.002 108.004 312.226 110.317C315.449 112.594 317.937 115.397 319.689 118.726C321.476 122.054 322.369 125.856 322.369 130.131V185L298.193 185V173.753H297.562C296.126 176.486 294.286 178.798 292.044 180.69C289.837 182.582 287.226 184.001 284.213 184.947C281.235 185.893 277.871 186.366 274.122 186.366ZM282.058 169.548C284.826 169.548 287.314 168.988 289.521 167.866C291.764 166.745 293.551 165.204 294.882 163.241C296.214 161.244 296.879 158.932 296.879 156.304V148.631C296.143 149.016 295.25 149.366 294.199 149.682C293.183 149.997 292.062 150.295 290.835 150.575C289.609 150.856 288.348 151.101 287.051 151.311C285.755 151.521 284.511 151.714 283.32 151.889C280.902 152.275 278.835 152.87 277.118 153.676C275.436 154.482 274.14 155.533 273.229 156.83C272.353 158.091 271.915 159.598 271.915 161.349C271.915 164.012 272.861 166.045 274.753 167.446C276.68 168.848 279.115 169.548 282.058 169.548ZM338.084 185V104.273H363.048V118.989H363.889C365.361 113.663 367.761 109.704 371.089 107.111C374.418 104.483 378.29 103.169 382.705 103.169C383.896 103.169 385.122 103.257 386.384 103.432C387.645 103.572 388.819 103.8 389.905 104.115V126.452C388.679 126.031 387.067 125.698 385.07 125.453C383.107 125.208 381.356 125.085 379.814 125.085C376.766 125.085 374.015 125.768 371.562 127.135C369.145 128.466 367.235 130.341 365.834 132.759C364.467 135.141 363.784 137.944 363.784 141.168V185H338.084ZM433.921 186.524C425.477 186.524 418.189 184.86 412.058 181.531C405.961 178.168 401.266 173.385 397.972 167.183C394.714 160.946 393.085 153.536 393.085 144.952C393.085 136.613 394.731 129.325 398.025 123.088C401.318 116.816 405.961 111.946 411.952 108.477C417.944 104.973 425.004 103.222 433.133 103.222C438.879 103.222 444.135 104.115 448.9 105.902C453.665 107.689 457.782 110.334 461.251 113.838C464.719 117.342 467.417 121.669 469.344 126.82C471.272 131.935 472.235 137.804 472.235 144.426V150.838L402.072 150.838V135.912L448.322 135.912C448.287 133.179 447.638 130.744 446.377 128.607C445.116 126.469 443.381 124.805 441.174 123.614C439.002 122.387 436.496 121.774 433.658 121.774C430.785 121.774 428.21 122.422 425.933 123.719C423.655 124.98 421.851 126.714 420.519 128.922C419.188 131.094 418.487 133.564 418.417 136.332V151.521C418.417 154.815 419.065 157.705 420.362 160.193C421.658 162.646 423.497 164.555 425.88 165.922C428.263 167.288 431.101 167.972 434.394 167.972C436.672 167.972 438.739 167.656 440.596 167.026C442.453 166.395 444.047 165.466 445.379 164.24C446.71 163.014 447.709 161.507 448.374 159.72L471.972 160.403C470.991 165.694 468.836 170.302 465.508 174.226C462.214 178.115 457.887 181.146 452.526 183.318C447.165 185.455 440.964 186.524 433.921 186.524ZM485.361 215.273V104.273H510.799V118.095H511.587C512.638 115.643 514.127 113.277 516.054 111C518.016 108.723 520.504 106.866 523.517 105.429C526.566 103.957 530.21 103.222 534.449 103.222C540.055 103.222 545.293 104.693 550.164 107.636C555.069 110.58 559.028 115.117 562.042 121.249C565.055 127.38 566.561 135.194 566.561 144.689C566.561 153.834 565.107 161.49 562.199 167.656C559.326 173.823 555.437 178.448 550.532 181.531C545.661 184.615 540.248 186.156 534.292 186.156C530.227 186.156 526.706 185.491 523.728 184.159C520.749 182.828 518.244 181.076 516.212 178.903C514.215 176.731 512.673 174.401 511.587 171.913H511.061V215.273H485.361ZM510.536 144.636C510.536 148.981 511.114 152.765 512.27 155.989C513.462 159.212 515.161 161.717 517.368 163.504C519.611 165.256 522.291 166.132 525.409 166.132C528.563 166.132 531.243 165.256 533.451 163.504C535.658 161.717 537.322 159.212 538.444 155.989C539.6 152.765 540.178 148.981 540.178 144.636C540.178 140.292 539.6 136.525 538.444 133.337C537.322 130.148 535.658 127.678 533.451 125.926C531.278 124.174 528.598 123.298 525.409 123.298C522.256 123.298 519.576 124.157 517.368 125.874C515.161 127.59 513.462 130.043 512.27 133.232C511.114 136.42 510.536 140.222 510.536 144.636ZM580.029 185V104.273H604.994V118.989H605.835C607.306 113.663 609.706 109.704 613.035 107.111C616.363 104.483 620.235 103.169 624.65 103.169C625.841 103.169 627.067 103.257 628.329 103.432C629.59 103.572 630.764 103.8 631.85 104.115V126.452C630.624 126.031 629.012 125.698 627.015 125.453C625.053 125.208 623.301 125.085 621.759 125.085C618.711 125.085 615.96 125.768 613.508 127.135C611.09 128.466 609.181 130.341 607.779 132.759C606.413 135.141 605.729 137.944 605.729 141.168V185H580.029ZM675.866 186.524C667.422 186.524 660.134 184.86 654.003 181.531C647.906 178.168 643.211 173.385 639.918 167.183C636.659 160.946 635.03 153.536 635.03 144.952C635.03 136.613 636.677 129.325 639.97 123.088C643.264 116.816 647.906 111.946 653.898 108.477C659.889 104.973 666.949 103.222 675.078 103.222C680.824 103.222 686.08 104.115 690.845 105.902C695.61 107.689 699.727 110.334 703.196 113.838C706.665 117.342 709.363 121.669 711.29 126.82C713.217 131.935 714.18 137.804 714.18 144.426V150.838L644.017 150.838V135.912H690.267C690.232 133.179 689.584 130.744 688.322 128.607C687.061 126.469 685.327 124.805 683.119 123.614C680.947 122.387 678.442 121.774 675.604 121.774C672.731 121.774 670.155 122.422 667.878 123.719C665.6 124.98 663.796 126.714 662.464 128.922C661.133 131.094 660.432 133.564 660.362 136.332V151.521C660.362 154.815 661.01 157.705 662.307 160.193C663.603 162.646 665.443 164.555 667.825 165.922C670.208 167.288 673.046 167.972 676.339 167.972C678.617 167.972 680.684 167.656 682.541 167.026C684.398 166.395 685.992 165.466 687.324 164.24C688.655 163.014 689.654 161.507 690.32 159.72L713.918 160.403C712.937 165.694 710.782 170.302 707.453 174.226C704.16 178.115 699.832 181.146 694.472 183.318C689.111 185.455 682.909 186.524 675.866 186.524ZM803.448 104.273L775.751 185H746.319L718.674 104.273H745.741L760.614 159.878H761.455L776.381 104.273H803.448ZM813.303 185V104.273H839.003V185L813.303 185ZM826.179 94.8651C822.57 94.8651 819.469 93.6738 816.876 91.2912C814.284 88.8736 812.987 85.9654 812.987 82.5668C812.987 79.2031 814.284 76.33 816.876 73.9474C819.469 71.5298 822.57 70.321 826.179 70.321C829.823 70.321 832.924 71.5298 835.482 73.9474C838.074 76.33 839.371 79.2031 839.371 82.5668C839.371 85.9654 838.074 88.8736 835.482 91.2912C832.924 93.6738 829.823 94.8651 826.179 94.8651ZM893.097 186.524C884.653 186.524 877.365 184.86 871.233 181.531C865.137 178.168 860.442 173.385 857.148 167.183C853.89 160.946 852.26 153.536 852.26 144.952C852.26 136.613 853.907 129.325 857.201 123.088C860.494 116.816 865.137 111.946 871.128 108.477C877.12 104.973 884.18 103.222 892.309 103.222C898.055 103.222 903.31 104.115 908.076 105.902C912.841 107.689 916.958 110.334 920.426 113.838C923.895 117.342 926.593 121.669 928.52 126.82C930.447 131.935 931.411 137.804 931.411 144.426V150.838H861.248V135.912H907.498C907.462 133.179 906.814 130.744 905.553 128.607C904.292 126.469 902.557 124.805 900.35 123.614C898.177 122.387 895.672 121.774 892.834 121.774C889.961 121.774 887.386 122.422 885.108 123.719C882.831 124.98 881.026 126.714 879.695 128.922C878.364 131.094 877.663 133.564 877.593 136.332V151.521C877.593 154.815 878.241 157.705 879.537 160.193C880.834 162.646 882.673 164.555 885.056 165.922C887.438 167.288 890.276 167.972 893.57 167.972C895.847 167.972 897.915 167.656 899.772 167.026C901.629 166.395 903.223 165.466 904.554 164.24C905.886 163.014 906.884 161.507 907.55 159.72L931.148 160.403C930.167 165.694 928.012 170.302 924.684 174.226C921.39 178.115 917.063 181.146 911.702 183.318C906.341 185.455 900.14 186.524 893.097 186.524ZM958.754 185L937.731 104.273H963.536L974.415 155.989H975.099L986.766 104.273H1011.94L1023.92 155.621H1024.61L1035.17 104.273H1060.98L1039.9 185H1012.41L999.8 137.962H998.907L986.293 185H958.754ZM1141.77 128.922L1118.17 129.553C1117.93 127.871 1117.26 126.382 1116.17 125.085C1115.09 123.754 1113.67 122.72 1111.92 121.984C1110.2 121.214 1108.2 120.828 1105.93 120.828C1102.95 120.828 1100.41 121.424 1098.31 122.615C1096.24 123.806 1095.22 125.418 1095.26 127.45C1095.22 129.027 1095.85 130.393 1097.15 131.55C1098.48 132.706 1100.85 133.634 1104.24 134.335L1119.8 137.278C1127.86 138.82 1133.85 141.378 1137.78 144.952C1141.73 148.526 1143.73 153.256 1143.77 159.142C1143.73 164.678 1142.08 169.496 1138.83 173.595C1135.6 177.695 1131.19 180.883 1125.58 183.161C1119.98 185.403 1113.56 186.524 1106.35 186.524C1094.82 186.524 1085.73 184.159 1079.07 179.429C1072.45 174.664 1068.66 168.287 1067.72 160.298L1093.1 159.668C1093.66 162.611 1095.12 164.853 1097.46 166.395C1099.81 167.937 1102.81 168.707 1106.45 168.707C1109.74 168.707 1112.43 168.094 1114.49 166.868C1116.56 165.642 1117.61 164.012 1117.65 161.98C1117.61 160.158 1116.81 158.704 1115.23 157.618C1113.65 156.497 1111.18 155.621 1107.82 154.99L1093.73 152.31C1085.64 150.838 1079.61 148.123 1075.65 144.163C1071.69 140.169 1069.73 135.089 1069.77 128.922C1069.73 123.526 1071.17 118.919 1074.08 115.099C1076.98 111.245 1081.12 108.302 1086.48 106.27C1091.84 104.238 1098.16 103.222 1105.45 103.222C1116.38 103.222 1125 105.517 1131.31 110.107C1137.62 114.661 1141.1 120.933 1141.77 128.922Z" fill="white"/>
</svg>
