<?xml version="1.0" encoding="UTF-8"?>
<svg id="Layer_2" data-name="Layer 2" xmlns="http://www.w3.org/2000/svg" viewBox="0 0 46.02 46.02">
  <g id="Layer_1-2" data-name="Layer 1">
    <path d="m23.01,0C10.32,0,0,10.32,0,23.01s10.32,23.01,23.01,23.01,23.01-10.32,23.01-23.01S35.7,0,23.01,0Zm9.74,33.35c-.29.43-.76.67-1.25.67-.29,0-.58-.08-.83-.25-2.47-1.65-6.67-2.75-10.17-2.75-3.71,0-6.5.91-6.53.92-.78.27-1.64-.16-1.9-.95s.16-1.64.95-1.9c.13-.04,3.28-1.08,7.47-1.08,3.5,0,8.37.94,11.83,3.25.69.46.88,1.39.42,2.08Zm2.99-6.14c-.33.52-.89.81-1.46.81-.31,0-.62-.08-.91-.26-4.48-2.79-9.09-3.39-13.06-3.35-4.48.04-8.07.9-8.13.91-.91.26-1.86-.27-2.12-1.18-.26-.91.27-1.86,1.18-2.12.28-.08,3.85-.96,8.75-1,4.47-.04,10.03.61,15.19,3.83.8.5,1.05,1.56.55,2.37Zm2.98-7.18c-.37.63-1.04.99-1.73.99-.34,0-.69-.09-1.01-.27-5.23-3.07-11.58-3.72-15.99-3.73h-.06c-5.33,0-9.44.94-9.48.95-1.08.25-2.15-.42-2.4-1.5-.25-1.08.42-2.15,1.49-2.4.19-.04,4.57-1.05,10.39-1.05h.07c4.91,0,12.01.75,18.01,4.27.95.56,1.27,1.79.71,2.74Z" stroke-width="0"/>
  </g>
</svg>