<?xml version="1.0" encoding="UTF-8"?>
<svg id="Layer_2" data-name="Layer 2" xmlns="http://www.w3.org/2000/svg" viewBox="0 0 176 124">
  <g id="Layer_1-2" data-name="Layer 1">
    <g>
      <path d="m172.32,19.36c-2.02-7.62-7.99-13.62-15.56-15.66C143.04,0,88,0,88,0c0,0-55.04,0-68.76,3.7-7.57,2.04-13.54,8.04-15.56,15.66C0,33.18,0,62,0,62c0,0,0,28.82,3.68,42.64,2.02,7.62,7.99,13.62,15.56,15.66,13.73,3.7,68.76,3.7,68.76,3.7,0,0,55.04,0,68.76-3.7,7.57-2.04,13.54-8.04,15.56-15.66,3.68-13.81,3.68-42.64,3.68-42.64,0,0,0-28.82-3.68-42.64Z" stroke-width="0"/>
      <polygon points="70 88.17 116 62 70 35.83 70 88.17" fill="#fff" stroke-width="0"/>
    </g>
  </g>
</svg>